# xmcd
#
# Track frame offsets:
#	150
#	16760
#	34115
#	51860
#	70086
#	88636
#	103748
#	118651
#	137699
#	148318
#
# Disc length: 2193 seconds
#
# Revision: 0
# Processed by: cddbd v1.5.1PL2 Copyright (c) Steve Scherf et al.
# Submitted via: dBpowerAMP V4.0
#
DISCID=89088f0a
DTITLE=Coffey - Southern Man
DYEAR=1900
DGENRE=Country
TTITLE0=Rock and Roll Sally
TTITLE1=Memphis
TTITLE2=You Gave Me You
TTITLE3=Can I
TTITLE4=Better Today
TTITLE5=Together Babe
TTITLE6=Recovery
TTITLE7=Blinded
TTITLE8=Big Legged Woman
TTITLE9=Southern Man
EXTD=
EXTT0=
EXTT1=
EXTT2=
EXTT3=
EXTT4=
EXTT5=
EXTT6=
EXTT7=
EXTT8=
EXTT9=
PLAYORDER=
